<?xml version="1.0" standalone="no"?><!DOCTYPE svg PUBLIC "-//W3C//DTD SVG 1.1//EN" "http://www.w3.org/Graphics/SVG/1.1/DTD/svg11.dtd"><svg t="1694426673193" class="icon" viewBox="0 0 1024 1024" version="1.1" xmlns="http://www.w3.org/2000/svg" p-id="5646" xmlns:xlink="http://www.w3.org/1999/xlink" width="200" height="200"><path d="M440.608 308.224q-11.632-47.584-23.616-47.584c-11.984 0-22.144-47.056-12.8-62.112-11.888-34.448-26.64-140.368 85.952-166.656q55.648-7.68 83.664 27.456 53.616 17.008 53.6 45.04c0 28.032 10.048 90.576-5.808 100.48 17.872 0 6.128 47.456 0 46.704 0 9.088-26.096 45.808-36.944 56.672q-10.848 10.864 4.432 34.96 130.128 35.2 207.472 116.8c97.968 103.408 167.776 278.144 131.872 349.872-14.512 36.384-75.808 41.344-107.2 0-37.312-49.104-59.52-71.744-72-68.8-163.376 39.312-304.64 76.048-413.232 99.552-33.2 7.184-49.6-60.8-70.4-72.608-10.8-6.144-31.104 31.616-37.808 41.952-44.688 68.8-123.712 55.68-126.592 29.52-43.824-50.336 32.864-294.896 96.24-376s106.544-96 243.2-120.336a203.888 203.888 0 0 0-0.032-34.912z" fill="#527FF2" p-id="5647"></path><path d="M624.224 353.888q-9.424 11.472-28.4 38.4c-29.856 42.4-84.624 55.728-137.072 40.944q-47.344-13.232-72.88-79.632 12.608-2.624 26.592-5.248 34.128 62.704 89.472 59.92 56.416-2.832 93.84-62.4h2.848q13.072 3.76 25.6 8.016z" fill="#1F4AB5" p-id="5648"></path><path d="M573.776 59.344q53.616 17.008 53.6 45.04c0 28.032 10.048 90.576-5.808 100.48 17.872 0 6.128 47.456 0 46.704 0 9.088-26.096 45.808-36.944 56.672q-10.848 10.864 4.432 34.96 7.392 2 14.624 4.16-63.648 72.512-108.688 69.776t-87.392-67.872q15.552-2.976 33.008-6.064a203.888 203.888 0 0 0 0-34.96q-11.632-47.584-23.616-47.584c-11.984 0-22.144-47.056-12.8-62.112-11.888-34.448-26.64-140.368 85.952-166.656q55.6-7.68 83.632 27.456z" fill="#FFE1CE" p-id="5649"></path><path d="M573.776 59.344q53.616 17.008 53.6 45.04c0 27.744 9.84 89.328-5.344 100.176l-0.464 0.32c-8-19.952-5.984-31.456-14.48-48a11.408 11.408 0 0 0-1.824 0.432l-0.24 0.08-0.256 0.096-0.256 0.096-0.256 0.096-0.528 0.208-0.272 0.112c-3.392 1.424-9.12 4.128-29.536 8.656-28.352 6.288-125.568-29.808-152.176-57.12-13.616 8-18.336 43.76-22.864 68.256-4.064-22.4-5.024-53.392 6.96-81.6 6.192-3.12 15.584-6.304 29.632-8.112 34.064-4.384 38.928-12.688 46.784-12.688 7.04 0 48.656-17.6 87.04-21.296q2.32 2.528 4.48 5.248z" fill="#FFE1CE" p-id="5650"></path><path d="M404.16 198.544c-2.4-3.824 0.72-77.696 17.6-88.992 18.32 9.04 141.216 69.04 191.824 33.792q12.304 39.136 8 61.52 30.544-17.664 30.544-83.872c0-66.176-91.664-157.312-209.088-95.04-15.344 7.52-24 4.56-38.88 50.096-50.56 54.672 0 125.28 0 122.496z" fill="#25355A" p-id="5651"></path><path d="M275.472 734.032h464v112h-464z" fill="#527FF2" p-id="5652"></path><path d="M345.6 543.008m10.496 0l315.008 0q10.496 0 10.496 10.496l0 189.008q0 10.496-10.496 10.496l-315.008 0q-10.496 0-10.496-10.496l0-189.008q0-10.496 10.496-10.496Z" fill="#EEF2FD" p-id="5653"></path><path d="M419.104 653.248v15.744h-42v-15.744z m0-31.504v15.744h-42v-15.744z m0-31.504v15.744h-42v-15.744z" fill="#B3C9FF" p-id="5654"></path><path d="M419.104 716.256v10.496h-42v-10.496z m231.008 0v10.496H429.6v-10.496z m-146.992-62.992v15.744H429.6v-15.744z m0-31.504v15.744H429.6v-15.744z m0-31.504v15.744H429.6v-15.744z" fill="#D8DCE6" p-id="5655"></path><path d="M607.728 597.12q8.88 2.816 8.88 7.456c0 1.6 0.192 3.824 0.352 6.176v0.944c0.24 4.24 0.24 8.528-1.36 9.6 2.96 0 1.008 7.856 0 7.744 0 1.504-4.32 7.584-6.128 9.392q-1.792 1.808 0.736 5.792 21.552 5.84 34.368 19.36l0.224 0.24v10.496a10.496 10.496 0 0 1-10.496 10.496h-73.456a10.496 10.496 0 0 1-10.496-10.496v-16c8.288-8.512 16.384-10.8 35.312-14.16a33.776 33.776 0 0 0 0-5.792q-1.92-7.888-3.92-7.888c-1.984 0-3.664-7.792-2.128-10.288-1.968-5.712-4.416-23.248 14.24-27.616q9.216-1.264 13.872 4.544z" fill="#527FF2" p-id="5656"></path><path d="M616.608 604.592c0 4.64 1.6 15.008-0.96 16.64 2.96 0 1.008 7.856 0 7.744 0 1.504-4.32 7.584-6.128 9.392q-1.792 1.808 0.736 5.792 1.84 0.496 3.616 1.056l-0.512 2.8-15.744 10.496-15.744-5.248-1.184-8.176 4.992-0.912a33.776 33.776 0 0 0 0-5.792q-1.92-7.888-3.92-7.888c-1.984 0-3.664-7.792-2.128-10.288-1.168-3.408-2.512-11.008 0.544-17.6h36.016a4.624 4.624 0 0 1 0.416 1.984z" fill="#FFE1CE" p-id="5657"></path><path d="M616 645.92l-0.08 0.096q-1.6 1.92-4.624 6.272c-4.944 7.024-14.016 9.232-22.704 6.784q-7.84-2.208-12.064-13.216l4.4-0.864q5.648 10.384 14.816 9.936t15.552-10.336h0.464q2.24 0.624 4.24 1.328z" fill="#1F4AB5" p-id="5658"></path><path d="M579.616 620.192c-0.4-0.64 0.112-12.8 2.912-14.736 3.04 1.504 23.392 11.44 31.776 5.6a22.112 22.112 0 0 1 1.328 10.192q5.056-2.928 5.056-13.888c0-10.96-15.184-26.064-34.64-15.744-2.544 1.248-3.984 0.752-6.4 8.304-8.448 9.024-0.032 20.736-0.032 20.272z" fill="#25355A" p-id="5659"></path><path d="M346.208 624.928q-65.008-53.76-95.36-5.184t-24.08 57.488l-29.712 18.928a19.008 19.008 0 0 0-4.384 28.208q30.864 37.056 34.96 30.48 4.928-7.904 33.696-46.832a49.6 49.6 0 0 0 24-31.136c5.536-20.512 23.808 19.68 54.08-10.448q17.152-30.704 6.8-41.504zM673.264 619.2q64-54.88 95.264-6.848T793.6 669.36q32.976 18.976 48.192 29.536c11.536 4.8-15.472 58.064-43.872 45.056q-5.072-7.808-38.4-43.2a49.6 49.6 0 0 1-24.496-30.704c-5.904-20.416-23.472 20.096-54.24-9.504q-17.664-30.416-7.52-41.344z" fill="#FFE1CE" p-id="5660"></path></svg>